<?xml version="1.0" standalone="no"?>
<!DOCTYPE svg PUBLIC "-//W3C//DTD SVG 20010904//EN"
 "http://www.w3.org/TR/2001/REC-SVG-20010904/DTD/svg10.dtd">
<svg version="1.0" xmlns="http://www.w3.org/2000/svg"
 width="512.000000pt" height="512.000000pt" viewBox="0 0 512.000000 512.000000"
 preserveAspectRatio="xMidYMid meet">
<metadata>
Created by potrace 1.14, written by Peter Selinger 2001-2017
</metadata>
<g transform="translate(0.000000,512.000000) scale(0.100000,-0.100000)"
fill="#000000" stroke="none">
<path d="M2254 4966 c-176 -48 -284 -158 -331 -341 -4 -16 -9 -754 -10 -1640
l-3 -1610 -49 -50 c-102 -105 -160 -217 -190 -367 -23 -115 -19 -193 14 -323
60 -232 247 -424 470 -486 157 -43 235 -45 368 -13 117 29 172 53 252 110 147
106 230 227 275 404 32 124 33 215 4 335 -14 55 -32 116 -41 135 -27 59 -85
143 -135 195 l-48 50 -1 1600 c-1 880 -1 1603 -1 1606 4 27 -45 161 -73 203
-77 113 -140 158 -265 191 -94 25 -145 25 -236 1z"/>
<path d="M2935 4672 c-66 -34 -58 -136 12 -159 16 -5 193 -8 395 -8 406 1 409
1 429 63 10 30 9 41 -6 69 -10 18 -27 36 -39 40 -12 4 -189 7 -394 8 -285 0
-378 -3 -397 -13z"/>
<path d="M2948 4337 c-59 -21 -76 -95 -34 -144 l24 -28 390 -1 c390 -1 390 -1
418 21 23 19 29 31 29 65 0 60 -37 90 -108 90 -29 0 -197 1 -375 3 -178 1
-333 -1 -344 -6z"/>
<path d="M2947 3987 c-58 -21 -75 -99 -32 -142 13 -14 30 -26 37 -26 7 -1 128
-2 268 -4 182 -1 264 2 286 11 62 24 67 123 8 154 -27 15 -528 21 -567 7z"/>
<path d="M2936 3633 c-71 -37 -58 -141 19 -161 17 -4 144 -7 282 -7 281 1 295
4 314 63 10 30 9 41 -6 69 -10 18 -27 36 -39 40 -12 4 -139 8 -283 8 -199 1
-268 -2 -287 -12z"/>
<path d="M2943 3289 c-74 -27 -67 -148 10 -165 25 -5 245 -9 313 -5 6 1 23 12
38 26 36 33 36 92 0 126 -25 23 -31 24 -183 25 -86 1 -166 -2 -178 -7z"/>
<path d="M2921 2924 c-24 -20 -31 -34 -31 -62 1 -79 32 -92 220 -92 188 0 219
13 220 92 0 28 -7 42 -31 62 -30 26 -33 26 -189 26 -156 0 -159 0 -189 -26z"/>
</g>
</svg>
